<?xml version="1.0" encoding="utf-8"?>
<!-- Generator: Adobe Illustrator 18.1.1, SVG Export Plug-In . SVG Version: 6.00 Build 0)  -->
<svg version="1.1" id="Ebene_1" xmlns="http://www.w3.org/2000/svg" xmlns:xlink="http://www.w3.org/1999/xlink" x="0px" y="0px"
	 viewBox="0 0 31.8 48" enable-background="new 0 0 31.8 48" xml:space="preserve">
	<path d="M27.5,12.8c-0.6-0.6-1.7-0.6-2.4,0c-0.6,0.6-0.6,1.7,0,2.4l2.3,2.3C26,17.8,25,19.1,25,20.6c0,1.9,1.5,3.4,3.4,3.4
		c0.6,0,1.1-0.1,1.6-0.4v13.1c0,1.6-1.3,2.8-2.8,2.8c-1.6,0-2.8-1.3-2.8-2.8l0,0v-8.9c0-2.5-2.1-4.6-4.6-4.6h-1v-12
		c0-2.5-2.1-4.6-4.6-4.6H4.6C2.1,6.7,0,8.8,0,11.2v29.9h18.8V24.9h1c1.6,0,2.8,1.3,2.8,2.8v8.9l0,0c0,2.5,2.1,4.6,4.6,4.6
		s4.6-2.1,4.6-4.6V17L27.5,12.8z M16.4,39H2.2V11.2l0,0c0-1.2,1.1-2.3,2.3-2.3h9.6l0,0c1.2,0,2.3,1.1,2.3,2.3L16.4,39L16.4,39z
		 M28.4,22c-0.8,0-1.5-0.7-1.5-1.5s0.7-1.5,1.5-1.5s1.5,0.7,1.5,1.5C29.9,21.4,29.2,22,28.4,22z"/>
	<path d="M7,27.2c1.3,1.3,3.5,1.3,4.8,0s1.3-3.5,0-4.8l-2.4-2.8L7,22.5l0,0C5.7,23.8,5.7,26,7,27.2z"/>
</svg>
