<?xml version="1.0" encoding="utf-8"?>
<?xml-stylesheet type="text/css" href="../css/user.css"?>
<!-- Generator: Adobe Illustrator 18.1.1, SVG Export Plug-In . SVG Version: 6.00 Build 0)  -->
<svg version="1.1" id="Ebene_1" xmlns="http://www.w3.org/2000/svg" xmlns:xlink="http://www.w3.org/1999/xlink" x="0px" y="0px"
	 viewBox="0 0 24 26" enable-background="new 0 0 24 26" xml:space="preserve">
<path d="M11.5,5.6c-0.1-0.1-0.3-0.2-0.4-0.2C6.6,5.5,1.8,8.6,1.8,13s4.8,7.5,9.4,7.6l0,0c0.2,0,0.3-0.1,0.4-0.2
	c2.1-1.8,3.3-4.6,3.3-7.5S13.6,7.5,11.5,5.6z M11,19.5c-4-0.2-8.1-2.8-8.1-6.4C2.9,9.4,7,6.8,11,6.7c1.8,1.7,2.8,4,2.8,6.4
	S12.7,17.8,11,19.5z"/>
<path d="M21.4,12.5h-5.3c-0.4,0-0.5,0.3-0.5,0.5c0,0.4,0.3,0.5,0.5,0.5h5.3c0.4,0,0.5-0.3,0.5-0.5C21.9,12.7,21.7,12.5,21.4,12.5z"
	/>
<path d="M15.3,9.2c0.1,0,0.1,0,0.2,0l4.9-1.8c0.3-0.1,0.4-0.4,0.4-0.7c-0.1-0.3-0.4-0.4-0.7-0.4l-4.9,1.8c-0.3,0.1-0.4,0.4-0.4,0.7
	C14.9,9,15.1,9.2,15.3,9.2z"/>
<path d="M20.5,18.7l-4.9-1.8c-0.3-0.1-0.6,0.1-0.7,0.4c-0.1,0.3,0.1,0.6,0.4,0.7l4.9,1.8c0.1,0,0.1,0,0.2,0c0.3,0,0.4-0.2,0.5-0.4
	C20.9,19.2,20.7,18.8,20.5,18.7z"/>
</svg>
