<?xml version="1.0" encoding="utf-8"?>
<!-- Generator: Adobe Illustrator 18.1.1, SVG Export Plug-In . SVG Version: 6.00 Build 0)  -->
<svg version="1.1" xmlns="http://www.w3.org/2000/svg" xmlns:xlink="http://www.w3.org/1999/xlink" x="0px" y="0px" viewBox="0 0 11 27.5" enable-background="new 0 0 11 27.5" xml:space="preserve">
	<path d="M7.6,19.7c-0.3-0.3-0.5-0.7-0.5-1.1v-8.1H3.9v8.1c0,0.4-0.2,0.8-0.5,1.1c-0.7,0.6-1,1.4-1,2.3c0,1.7,1.4,3.1,3.1,3.1,s3.1-1.4,3.1-3.1C8.6,21.1,8.2,20.2,7.6,19.7z"/>
	<path d="M9.4,18.2V3.9C9.4,1.8,7.6,0,5.5,0C3.3,0,1.5,1.8,1.5,3.9v14.2c-1,1-1.5,2.4-1.5,3.8c0,3,2.5,5.5,5.5,5.5,c3,0,5.5-2.5,5.5-5.5C11,20.6,10.4,19.2,9.4,18.2z M7.7,4.1h-1c-0.3,0-0.5,0.2-0.5,0.5c0,0.3,0.2,0.5,0.5,0.5h1v1.1h-1,c-0.3,0-0.5,0.2-0.5,0.5s0.2,0.5,0.5,0.5h1v1.1h-1c-0.3,0-0.5,0.2-0.5,0.5c0,0.3,0.2,0.5,0.5,0.5h1v9.3c0,0.2,0.1,0.5,0.3,0.6,c0.8,0.7,1.3,1.7,1.3,2.8c0,2.1-1.7,3.8-3.8,3.8c-2.1,0-3.8-1.7-3.8-3.8c0-1.1,0.5-2.1,1.3-2.8c0.2-0.2,0.3-0.4,0.3-0.6V3.9,c0-1.2,1-2.2,2.2-2.2s2.2,1,2.2,2.2L7.7,4.1z"/>
</svg>