<?xml version="1.0" encoding="utf-8"?>
<!-- Generator: Adobe Illustrator 17.1.0, SVG Export Plug-In . SVG Version: 6.00 Build 0)  -->
<!DOCTYPE svg PUBLIC "-//W3C//DTD SVG 1.1//EN" "http://www.w3.org/Graphics/SVG/1.1/DTD/svg11.dtd">
<svg version="1.1" xmlns="http://www.w3.org/2000/svg" xmlns:xlink="http://www.w3.org/1999/xlink" x="0px" y="0px"
	 viewBox="0 0 800 600" enable-background="new 0 0 800 600" xml:space="preserve">
<g id="svg2300" inkscape:output_extension="org.inkscape.output.svg.inkscape" sodipodi:docname="Circuit_High_Speed_Ring_Fwd.svg" inkscape:version="0.48.0 r9654" sodipodi:version="0.32" xmlns:rdf="http://www.w3.org/1999/02/22-rdf-syntax-ns#" xmlns:inkscape="http://www.inkscape.org/namespaces/inkscape" xmlns:sodipodi="http://sodipodi.sourceforge.net/DTD/sodipodi-0.dtd" xmlns:svg="http://www.w3.org/2000/svg" xmlns:cc="http://creativecommons.org/ns#" xmlns:dc="http://purl.org/dc/elements/1.1/">
	<defs>
		
		
			<inkscape:perspective  inkscape:persp3d-origin="400 : 200 : 1" inkscape:vp_y="0 : 1000 : 0" inkscape:vp_x="0 : 300 : 1" sodipodi:type="inkscape:persp3d" id="perspective106" inkscape:vp_z="800 : 300 : 1">
			</inkscape:perspective>
	</defs>
	
		<sodipodi:namedview  inkscape:current-layer="layer1" inkscape:pageshadow="2" inkscape:pageopacity="0.0" inkscape:zoom="0.26398381" borderopacity="1.0" inkscape:cy="339.18505" inkscape:cx="732.5034" showgrid="false" pagecolor="#ffffff" bordercolor="#666666" id="base" inkscape:window-maximized="0" inkscape:window-y="28" inkscape:window-x="161" inkscape:window-height="744" inkscape:window-width="1272" inkscape:document-units="px">
		</sodipodi:namedview>
	<g id="layer1" inkscape:label="Layer 1" inkscape:groupmode="layer">
		<path id="path60" inkscape:connector-curvature="0" fill="#FF0000" d="M337.5,533l-6,4l-4.3-12.9L337.5,533z"/>
		<path id="path182" inkscape:connector-curvature="0" fill="none" stroke="#444444" stroke-width="4" d="M320.3,536.5
			c-4.3-6.5-3.2-8.1-7.9-8.4c-2.2-0.1-4.9,0-7.9,5.4c-1.6,2.9-3.3,5.2-5.8,7.4c-4.8,4.3-10,7.9-16.3,7.9c-6.6,0-8.7-3.3-16.5-5.8
			c-5.3-1.7-14.7-2.1-17.6-0.7c-2.4,1.1-2,1.3-3.9,1.5c-2.4,0.3-4.7-1.1-6.4-3c-2.7-2.9-3.9-5-6.6-8.5c-1.9-2.5-5.1-4.1-6.8-7.1
			c-1.2-2-0.7-3.1-3.4-5.1c-1.9-1.4-10-1.3-15.4-3.2c-4.2-1.5-3.8-7-6.6-11.3c-2.8-4.2-16.9-12.6-24.9-19.4
			c-9.6-10-10-11.1-13.8-15.4c-3.9-4.3-7.2-7.6-10.3-11.9c-2.1-3-4.1-7.3-3.5-12.4c1.3-11.2,7.7-20.2,7.8-32.9
			c0.1-8.7,0.7-12.8-1.3-27.2c-0.8-5.8-2.8-9.8-5-15.2c-5-12.6-10.7-24.9-17.2-37.1c-2.5-4.6-6.1-8.1-10.2-10.5
			c-4.6-2.7-10.2-5-15.4-7.6c-2.6-1.3-3.8-4.3-3.3-6.8c1-5.1,8.2-5.5,16.8-9.4c10.4-4.8,14.9-7.6,20.8-12.8
			c7.2-6.4,13.7-10.7,20.8-17.6c4.9-4.8,9.2-7.8,13.1-15.6c2.2-4.4,3.7-8,5-13.1c1.8-7.4,0.2-14,1.3-17.9c1.4-4.8,6.8-5.6,7.6-9.2
			c0.7-3.3-3.3-7.2-1.4-12c1.1-3,8.7-6.9,14.2-11.7c4.4-3.8,3.8-4.8,8-9.3c8.1-8.7,8.7-7.5,17.5-17.4c3.7-4.1,6.3-7.9,7.3-13.1
			c1.4-6.8-1.8-12.9-4.1-18.3c-0.8-1.8-2.1-2.8-4.4-3.7c-1.9-0.7-4.9,0.2-7-0.6c-3.5-1.4-5.7-2.5-9-5.1c-4.1-3.2-5.8-6-6-8.5
			c-0.2-3.1,1.6-4.2,3.9-5.2c5.1-2.3,12.4-6.4,17.6-11.7c2.9-3,1.5-6.7,3.1-10.7c0.9-2.3,2.9-6,5.5-8.5c3.8-3.7,9.2-5.6,15.7-2.6
			c6.7,3.1,12.3,6.5,18.8,12.5c1.8,1.6,1.1,6.9,4.8,6.7c4.9-0.2,2.4-3.4,7.6-5.9c8.1-3.9,19.1-4.4,27.3-2.2
			c3.8,0.9,8.3,3.2,12.2,2.6c5.1-0.8,6.9-5,7.3-7c1-4.5-0.1-11.1,2.4-14.3c2.6-3.3,3.8-5.1,20-10.3c15.3-4.9,20.8-2.1,28.7-5.2
			c9-3.5,16.2-14.9,23.3-14.4c3.7,0.2,7.2,2.2,7.9,6.5c1.2,7.8-0.7,15.5-0.7,22.6c-0.1,15.9,4.5,24.9,7.7,28.3
			c6.3,6.8,13,10.9,20.7,14.5c5.8,2.7,10.4,5.3,18.4,5.4c15.2,0.2,26.7,0.1,38.3,2.7c7.5,1.7,15.2,3.6,21.5,7.9
			c4.8,3.3,7.5,6.4,12.2,9.3c8.6,5.3,14.8,7.8,22,6.7c5.6-0.8,13.6-6.1,19.6-11.1c5.1-4.3,9.7-10.8,16.3-12.2
			c9.8-2.1,14.6-0.9,21.1-3.5c5.8-2.4,8.7-2.4,10.3-0.9c4.1,3.8,1.1,8-1.8,10.2c-6.6,5-17.8,14-21,14.8c-7.8,1.9-6.3,8.4-4.6,10.2
			c4,4,10.1,1.1,10.9-1.8c0.6-2.2,2.2-3.5,5.5-5.9c3.8-2.7,7.7-4.8,14.9-7.3c3.1-1.1,5.2-2.2,13.6-3.2c6.1-0.7,12.2-8.6,17.1-15.6
			c6.3-9,0.4-10.6,1.8-15.8c1.2-4.3,2.3-8.8,7.9-12.6c4.8-3.3,30.3,5.2,32.1,6.4c4.5,2.8,6.7,8.1,10.9,10c4.8,2.2,6.8,2.3,10.9,4.1
			c2.8,1.3,11.7,14,11.8,17.5c0.2,5.7-9.6,21.2-3.8,26.3c5.2,4.5,6.7,3.2,12.5,6.1c4,2,4,8.5,4.2,13c0.2,4.4,0.1,10.2-3.4,12.1
			c-7.1,3.8-16.7-2-24.7,0.2c-4.3,1.2-2.8,6.7-8.2,13.5c-6.2,7.8-9.1,16.5-9.1,21.4c0,7.2,0.7,16.4,0.1,22.9c-0.3,3.5-2.3,7.4-5.4,9
			c-5.2,2.6-10.1,2.1-14.4,5.2c-4.6,3.3-7.3,6.9-11.6,11.6c-4.1,4.6-4.9,7.3-7.4,12.9c-2.2,4.8-4.1,6.8-6.7,9.9
			c-2.3,2.7-5.9,4-8.9,6c-2.8,1.9-5.4,5-10.2,6.3c-12.9,3.4-25.1,8.9-37.4,9.8c-8.1,0.6-10.9-9.6-18.9-9.5c-3.4,0.1-6.6,1.9-9.4,3.9
			c-4.9,3.5-9.8,5.8-9.5,9.9c1.2,13.1,25.6,12.3,32.1,22.4c2.1,3.3,5.2,8.1,4.7,16.1c-0.3,4.4-3.8,8-7.1,10.6
			c-7.6,6.1-34.2,21.3-51.7,31.8l-86.2,53.5c-15.8,9.9-40.9,24.8-47.7,29.9c-16.3,12.3-30.4,35.5-34.1,40.8
			c-2.3,3.3-10.1,8.8-11,11.3c-1,2.9-0.7,8.5-3.6,10.5c-3.5,2.5-5.3,1.5-8.9,1.6c-3.1,0-2.2,0.8-5.6,1.5c-2.7,0.6-7.8,0.2-12.4-6.2
			L320.3,536.5z"/>
	</g>
</g>
</svg>
