<?xml version="1.0" encoding="utf-8"?>
<!-- Generator: Adobe Illustrator 18.1.1, SVG Export Plug-In . SVG Version: 6.00 Build 0)  -->
<svg version="1.1" id="Ebene_1" xmlns="http://www.w3.org/2000/svg" xmlns:xlink="http://www.w3.org/1999/xlink" x="0px" y="0px"
	 viewBox="0 0 24 26" enable-background="new 0 0 24 26" xml:space="preserve">
	<path d="M12.9,4c0.5,0,1-0.4,1-1V1c0-0.5-0.4-1-1-1c-0.5,0-1,0.4-1,1v2C11.9,3.5,12.4,4,12.9,4z M12.9,21.9c-0.5,0-1,0.4-1,1v2
	c0,0.5,0.4,1,1,1c0.5,0,1-0.4,1-1v-2C13.9,22.3,13.5,21.9,12.9,21.9z M5.2,19.3l-1.4,1.4c-0.4,0.4-0.4,1,0,1.4
	c0.4,0.4,1,0.4,1.4,0l1.4-1.4c0.4-0.4,0.4-1,0-1.4C6.2,18.9,5.6,18.9,5.2,19.3z M4,12.9c0-0.5-0.4-1-1-1H1c-0.5,0-1,0.4-1,1
	c0,0.5,0.4,1,1,1h2C3.5,13.9,4,13.5,4,12.9z M5.2,6.6c0.4,0.4,1,0.4,1.4,0c0.4-0.4,0.4-1,0-1.4L5.2,3.8c-0.4-0.4-1-0.4-1.4,0
	c-0.4,0.4-0.4,1,0,1.4L5.2,6.6z M16.9,6c-0.7,0-1.4,0.1-2,0.3c-0.6-0.2-1.3-0.3-2-0.3c-3.8,0-7,3.1-7,7s3.1,7,7,7
	c0.7,0,1.4-0.1,2-0.3c0.6,0.2,1.3,0.3,2,0.3c3.8,0,7-3.1,7-7S20.8,6,16.9,6z M12,17.8c-2.3-0.5-4-2.5-4-4.9c0-2.4,1.7-4.4,4-4.9
	c-1.2,1.3-2,3-2,4.9C10,14.8,10.7,16.6,12,17.8z"/>
</svg>
