<?xml version="1.0" encoding="utf-8"?>
<!-- Generator: Adobe Illustrator 18.1.1, SVG Export Plug-In . SVG Version: 6.00 Build 0)  -->
<svg version="1.1" xmlns="http://www.w3.org/2000/svg" xmlns:xlink="http://www.w3.org/1999/xlink" x="0px" y="0px" viewBox="0 0 15.4 9.7" enable-background="new 0 0 15.4 9.7" xml:space="preserve">
	<path d="M0,4c0-0.7,0.6-1.3,1.3-1.3C1.5,1.9,2.2,1.3,3,1.3c0.1,0,0.2,0,0.3,0C3.7,0.5,4.5,0,5.4,0c1,0,1.9,0.7,2.1,1.7,c0.4,0,0.8,0.2,1.1,0.4L8.3,2.5C8,2.3,7.7,2.2,7.4,2.2C7.2,2.2,7.1,2.1,7.1,2C7,1.1,6.3,0.5,5.4,0.5C4.6,0.5,4,1,3.8,1.7,c0,0.1-0.1,0.1-0.1,0.1c-0.1,0-0.1,0-0.2,0C3.3,1.8,3.2,1.8,3,1.8C2.4,1.8,1.8,2.3,1.7,3c0,0.1,0,0.1-0.1,0.2c-0.1,0-0.1,0.1-0.2,0,c0,0-0.1,0-0.1,0C0.9,3.2,0.5,3.5,0.5,4c0,0.5,0.4,0.8,0.8,0.8h3v0.5h-3C0.6,5.3,0,4.7,0,4z M12.9,9.7H4.7c-1,0-1.8-0.8-1.8-1.8,c0-1,0.8-1.8,1.7-1.8C4.9,4.9,5.8,4.2,7,4.2c0.1,0,0.3,0,0.4,0C7.9,3.1,9,2.4,10.1,2.4c1.4,0,2.6,1,3,2.3c1.3,0.1,2.3,1.2,2.3,2.5,C15.4,8.6,14.3,9.7,12.9,9.7z"/<name />
</svg>