<?xml version="1.0" encoding="utf-8"?>
<!-- Generator: Adobe Illustrator 18.1.1, SVG Export Plug-In . SVG Version: 6.00 Build 0)  -->
<svg version="1.1" id="Ebene_1" xmlns="http://www.w3.org/2000/svg" xmlns:xlink="http://www.w3.org/1999/xlink" x="0px" y="0px"
	 viewBox="0 0 24 26" enable-background="new 0 0 24 26" xml:space="preserve">

				<path d="M19.8,17.4l-0.5-0.3C17,15.7,14.5,15,11.8,15c-2.6,0-5.1,0.7-7.5,2l-0.5,0.3L0,10.5l0.5-0.3
					c3.4-2,7.4-3.1,11.5-3.1s8.1,1.1,11.6,3.2l0.5,0.3L19.8,17.4z M11.9,14c2.6,0,5.3,0.7,7.7,2l3-5.1C19.4,9.1,15.8,8,11.9,8
					C8.1,8,4.4,9,1.3,10.8l3,5C6.8,14.7,9.4,14,11.9,14z"/>

				<path d="M19.8,17.4l-0.5-0.3C17,15.7,14.5,15,11.8,15c-2.6,0-5.1,0.7-7.5,2l-0.5,0.3L0,10.5l0.5-0.3
					c3.4-2,7.4-3.1,11.5-3.1s8.1,1.1,11.6,3.2l0.5,0.3L19.8,17.4z M11.9,14c2.6,0,5.3,0.7,7.7,2l3-5.1C19.4,9.1,15.8,8,11.9,8
					C8.1,8,4.4,9,1.3,10.8l3,5C6.8,14.7,9.4,14,11.9,14z"/>

		<path d="M9.7,16.6L9.7,16.6L6,9.8C6,9.6,5.7,9.5,5.4,9.6C5.1,9.7,5,10,5.2,10.3l3.6,6.8c-0.1,0.2-0.2,0.4-0.2,0.7
			c0,0.7,0.5,1.1,1.1,1.1c0.7,0,1.1-0.5,1.1-1.1S10.3,16.6,9.7,16.6z"/>
		<path d="M14.3,16.6L14.3,16.6l-3.7-6.8c-0.1-0.3-0.5-0.4-0.7-0.2c-0.3,0.1-0.4,0.5-0.2,0.7l3.6,6.8
			c-0.1,0.2-0.2,0.4-0.2,0.7c0,0.7,0.5,1.1,1.1,1.1s1.1-0.5,1.1-1.1S14.8,16.6,14.3,16.6z"/>

		<path d="M9.7,16.6L9.7,16.6L6,9.8C6,9.6,5.7,9.5,5.4,9.6C5.1,9.7,5,10,5.2,10.3l3.6,6.8c-0.1,0.2-0.2,0.4-0.2,0.7
			c0,0.7,0.5,1.1,1.1,1.1c0.7,0,1.1-0.5,1.1-1.1S10.3,16.6,9.7,16.6z"/>
		<path d="M14.3,16.6L14.3,16.6l-3.7-6.8c-0.1-0.3-0.5-0.4-0.7-0.2c-0.3,0.1-0.4,0.5-0.2,0.7l3.6,6.8
			c-0.1,0.2-0.2,0.4-0.2,0.7c0,0.7,0.5,1.1,1.1,1.1s1.1-0.5,1.1-1.1S14.8,16.6,14.3,16.6z"/>

</svg>
